<svg version="1" xmlns="http://www.w3.org/2000/svg" width="682.667" height="682.667" viewBox="0 0 512.000000 512.000000"><path d="M169.5 48.2c-1.7 1-29.4 22.1-40 30.4-1.6 1.3-15.4 11.8-30.5 23.4-15.1 11.5-28.7 22.2-30.2 23.6-5.4 5.3-6.2 15.3-1.8 21.7 1.3 1.7 5.9 5.9 10.4 9.3 10 7.4 64.7 49.4 66.2 50.9.7.5 2.3 1.8 3.7 2.9 2 1.4 2.4 2.1 1.4 3-.7.6-14.9 12.4-31.7 26.1-16.8 13.7-33.4 27.3-37 30.2-13.8 11.3-16.4 15.2-15.4 22.9.7 5.8 2.9 8.8 11.6 16 4.6 3.8 8.8 7.3 9.4 7.9.6.5 2.6 2.2 4.5 3.7 19.8 15.5 59.9 49.2 59.2 49.8-.4.4-13.4 11-28.8 23.5-15.4 12.6-28.2 23.1-28.5 23.4-.3.4-3.9 3.3-8 6.6-4.1 3.2-7.7 6.2-8 6.5-.3.3-2.4 2.1-4.8 3.9-6.9 5.4-8.9 11.2-6.6 19 1.4 4.8 4.4 8.5 8.8 10.8 4 2.1 13.4 1.4 16.9-1.3 2.2-1.7 59-48.1 64.2-52.6 1.1-.9 9.5-7.7 18.6-15.2 9.2-7.4 17.5-14.8 18.5-16.3 1.3-2 1.9-4.6 1.9-8.9 0-6.9-2.1-10.8-8.5-15.9-15.4-12.4-23.9-19.3-26-21.1-3.4-3-36.1-29.8-43.8-35.9-3.4-2.8-6.2-5.3-6.2-5.6 0-.4 5.1-4.8 11.3-9.9 6.1-5 12.1-9.9 13.2-10.9 1.1-.9 7-5.6 13-10.6 6.1-4.9 11.2-9.2 11.5-9.5.3-.3 2.8-2.3 5.5-4.5 2.8-2.2 5.9-4.7 7-5.6 22.3-18.3 23.5-19.7 24-26.8.3-4.5-1.1-8.9-3.9-12-1.8-2-19.2-15.6-67.4-52.7-5.7-4.3-11.2-8.6-12.3-9.4-2.1-1.7-6.8 2.1 51.6-42.6 12.7-9.7 24.5-19 26.3-20.7 8-7.6 6-21.7-3.9-26.7-4.3-2.2-12.2-2.6-15.4-.8zM341 146.1c-2.5.3-6.5.9-8.9 1.3-2.4.3-7.8 1.5-11.8 2.7-44.7 12.5-77.4 50.5-83.9 97.4-1.2 8.9-.7 29.7.9 39 7.7 43.5 37.5 77.8 79.3 91.3 13 4.3 21.3 5.5 35.9 5.6 19.2.1 31.3-2 47.1-7.9 18.9-7.1 39.9-23.6 46.1-36.3 6.2-12.6-.4-27.6-14-31.7-10-3-18.1-.4-28.7 9.4-11.6 10.8-24 17.4-36.6 19.8-6.7 1.2-21.6.6-28.4-1.2-34.8-9.1-57.1-44.8-51.4-82.3 2-13.4 5.4-22.1 12.9-32.7 15.8-22.4 42-32.9 68.5-27.4 13.7 2.8 22.8 7.6 34 18 10.5 9.7 18.6 12.5 28.7 10 14.9-3.8 21.4-19.2 14.3-33.5-5.1-10.1-24.9-25.6-41.6-32.6-8.7-3.6-23.8-7.7-31.4-8.5-8.6-1-26.1-1.2-31-.4z"/></svg>